<?xml version="1.0" encoding="iso-8859-1"?>
<!-- Uploaded to: SVG Repo, www.svgrepo.com, Generator: SVG Repo Mixer Tools -->
<!DOCTYPE svg PUBLIC "-//W3C//DTD SVG 1.1//EN" "http://www.w3.org/Graphics/SVG/1.1/DTD/svg11.dtd">
<svg fill="#000000" version="1.1" id="Capa_1" xmlns="http://www.w3.org/2000/svg" xmlns:xlink="http://www.w3.org/1999/xlink" 
	 width="800px" height="800px" viewBox="0 0 792.013 792.013"
	 xml:space="preserve">
<g>
	<g>
		<g>
			<g>
				<g>
					<path d="M361.543,250.293c-1.445,4.023-2.392,8.296-2.392,12.843c0,20.779,16.83,37.596,37.633,37.596
						c12.856,0,24.205-6.465,30.969-16.332h51.113c11.771,0,21.276-9.53,21.276-21.252c0-11.76-9.505-21.277-21.276-21.277h-51.113
						c-6.764-9.854-18.112-16.332-30.969-16.332c-0.236,0-0.411,0.05-0.623,0.05l-46.553-65.513
						c-6.814-9.58-20.069-11.847-29.648-5.033c-9.567,6.802-11.822,20.094-5.033,29.661L361.543,250.293z"/>
				</g>
			</g>
		</g>
		<g>
			<g>
				<g>
					<path d="M396,0C240.047,0,113.605,126.442,113.605,282.408v470.439h82.667v39.166h399.469v-39.166h82.667V282.408
						C678.408,126.442,551.966,0,396,0z M396,79.391c100.743,0,182.401,81.683,182.401,182.438
						c0,100.768-81.658,182.438-182.401,182.438c-100.755,0-182.45-81.683-182.45-182.438C213.55,161.086,295.245,79.391,396,79.391
						z M594.308,685.452H197.667V523.855c0-21.912,17.764-39.676,39.676-39.676H554.62c21.912,0,39.677,17.764,39.677,39.676
						v161.597H594.308z"/>
				</g>
			</g>
		</g>
	</g>
</g>
</svg>